HIERARCHY
ROOT Hips
{
	OFFSET 0.000000 89.005402 0.000000
	CHANNELS 6 Xposition Yposition Zposition Xrotation Yrotation Zrotation
	JOINT Spine
	{
		OFFSET 0.116900 10.681000 0.373400
		CHANNELS 3 Xrotation Yrotation Zrotation
		JOINT Spine1
		{
			OFFSET 0.000000 13.840401 0.053500
			CHANNELS 3 Xrotation Yrotation Zrotation
			JOINT Spine2
			{
				OFFSET 0.000000 14.712700 -0.366200
				CHANNELS 3 Xrotation Yrotation Zrotation
				JOINT Neck
				{
					OFFSET 0.000000 35.415497 -3.314200
					CHANNELS 3 Xrotation Yrotation Zrotation
					JOINT Head
					{
						OFFSET 0.000000 16.899200 1.218300
						CHANNELS 3 Xrotation Yrotation Zrotation
						JOINT HeadTop_End
						{
							OFFSET 0.000000 22.206207 2.192500
							CHANNELS 3 Xrotation Yrotation Zrotation
							End Site
							{
								OFFSET 0.000000 22.314178 0.000000
							}
						}
					}
				}
				JOINT LeftShoulder
				{
					OFFSET 12.896400 26.716293 -4.548400
					CHANNELS 3 Xrotation Yrotation Zrotation
					JOINT LeftArm
					{
						OFFSET 19.027000 -4.857010 -1.718400
						CHANNELS 3 Xrotation Yrotation Zrotation
						JOINT LeftForeArm
						{
							OFFSET 24.179897 0.000000 0.000000
							CHANNELS 3 Xrotation Yrotation Zrotation
							JOINT LeftHand
							{
								OFFSET 27.156403 0.000000 0.000000
								CHANNELS 3 Xrotation Yrotation Zrotation
								JOINT LeftHandIndex1
								{
									OFFSET 16.441200 0.000000 0.000000
									CHANNELS 3 Xrotation Yrotation Zrotation
									JOINT LeftHandIndex2
									{
										OFFSET 4.821899 0.000000 0.000000
										CHANNELS 3 Xrotation Yrotation Zrotation
										JOINT LeftHandIndex3
										{
											OFFSET 6.386497 0.000000 0.000000
											CHANNELS 3 Xrotation Yrotation Zrotation
											JOINT LeftHandIndex4
											{
												OFFSET 5.188988 0.000000 0.000000
												CHANNELS 3 Xrotation Yrotation Zrotation
												End Site
												{
													OFFSET -0.178703 5.185913 0.000177
												}
											}
										}
									}
								}
								JOINT LeftHandThumb1
								{
									OFFSET 6.534897 -5.032593 5.900300
									CHANNELS 3 Xrotation Yrotation Zrotation
									JOINT LeftHandThumb2
									{
										OFFSET 3.818176 -2.204422 2.204423
										CHANNELS 3 Xrotation Yrotation Zrotation
										JOINT LeftHandThumb3
										{
											OFFSET 3.252098 -1.877594 1.877601
											CHANNELS 3 Xrotation Yrotation Zrotation
											JOINT LeftHandThumb4
											{
												OFFSET 5.251778 -3.032120 3.032117
												CHANNELS 3 Xrotation Yrotation Zrotation
												End Site
												{
													OFFSET 0.000023 6.780014 0.000000
												}
											}
										}
									}
								}
							}
						}
					}
				}
				JOINT RightShoulder
				{
					OFFSET -12.896300 26.716293 -4.548400
					CHANNELS 3 Xrotation Yrotation Zrotation
					JOINT RightArm
					{
						OFFSET -19.027000 -4.857010 -1.718400
						CHANNELS 3 Xrotation Yrotation Zrotation
						JOINT RightForeArm
						{
							OFFSET -24.179897 0.000000 0.000000
							CHANNELS 3 Xrotation Yrotation Zrotation
							JOINT RightHand
							{
								OFFSET -27.156403 0.000000 0.000000
								CHANNELS 3 Xrotation Yrotation Zrotation
								JOINT RightHandThumb1
								{
									OFFSET -6.591202 -4.852203 5.988100
									CHANNELS 3 Xrotation Yrotation Zrotation
									JOINT RightHandThumb2
									{
										OFFSET -3.818176 -2.204422 2.204423
										CHANNELS 3 Xrotation Yrotation Zrotation
										JOINT RightHandThumb3
										{
											OFFSET -3.252098 -1.877594 1.877601
											CHANNELS 3 Xrotation Yrotation Zrotation
											JOINT RightHandThumb4
											{
												OFFSET -5.251778 -3.032120 3.032117
												CHANNELS 3 Xrotation Yrotation Zrotation
												End Site
												{
													OFFSET -0.000023 6.780014 0.000000
												}
											}
										}
									}
								}
								JOINT RightHandIndex1
								{
									OFFSET -16.029404 0.000000 0.000000
									CHANNELS 3 Xrotation Yrotation Zrotation
									JOINT RightHandIndex2
									{
										OFFSET -5.213303 0.000000 0.000000
										CHANNELS 3 Xrotation Yrotation Zrotation
										JOINT RightHandIndex3
										{
											OFFSET -6.386528 0.000000 0.000000
											CHANNELS 3 Xrotation Yrotation Zrotation
											JOINT RightHandIndex4
											{
												OFFSET -5.189026 0.000000 0.000000
												CHANNELS 3 Xrotation Yrotation Zrotation
												End Site
												{
													OFFSET 0.236702 5.183624 0.001972
												}
											}
										}
									}
								}
							}
						}
					}
				}
			}
		}
	}
	JOINT LeftUpLeg
	{
		OFFSET 14.073000 -7.904099 -1.463000
		CHANNELS 3 Xrotation Yrotation Zrotation
		JOINT LeftLeg
		{
			OFFSET -0.109806 -34.073280 4.093200
			CHANNELS 3 Xrotation Yrotation Zrotation
			JOINT LeftFoot
			{
				OFFSET 0.109806 -29.899420 -6.319000
				CHANNELS 3 Xrotation Yrotation Zrotation
				JOINT LeftToeBase
				{
					OFFSET 1.551100 -14.988700 20.535801
					CHANNELS 3 Xrotation Yrotation Zrotation
					JOINT LeftToe_End
					{
						OFFSET 0.221200 0.570800 13.248301
						CHANNELS 3 Xrotation Yrotation Zrotation
						End Site
						{
							OFFSET 0.000000 13.262435 0.000000
						}
					}
				}
			}
		}
	}
	JOINT RightUpLeg
	{
		OFFSET -13.839300 -7.904099 -1.463000
		CHANNELS 3 Xrotation Yrotation Zrotation
		JOINT RightLeg
		{
			OFFSET 0.109694 -34.073219 4.093300
			CHANNELS 3 Xrotation Yrotation Zrotation
			JOINT RightFoot
			{
				OFFSET -0.109694 -29.899384 -6.319200
				CHANNELS 3 Xrotation Yrotation Zrotation
				JOINT RightToeBase
				{
					OFFSET -1.551100 -14.988700 20.535801
					CHANNELS 3 Xrotation Yrotation Zrotation
					JOINT RightToe_End
					{
						OFFSET -0.221200 0.570900 13.248299
						CHANNELS 3 Xrotation Yrotation Zrotation
						End Site
						{
							OFFSET 0.000000 13.262440 0.000000
						}
					}
				}
			}
		}
	}
}
MOTION
Frames: 6
Frame Time: 0.033333
0.411512 76.380234 163.857941 132.144189 0.449369 4.033896 29.765889 -1.594287 -0.469462 3.579378 -0.003064 -0.129270 3.580990 -0.022417 -0.058139 2.719921 2.901219 -11.273878 -11.768880 1.727226 9.966806 -0.000001 0.000000 0.000000 3.155089 -18.344017 11.993658 -101.287197 -8.405812 -25.629913 89.996123 -89.179772 89.980052 37.338694 5.408110 68.017804 0.082440 2.827539 -4.091097 -0.000004 0.000376 -0.003784 0.000019 -0.013777 0.134595 -0.000002 -0.000000 -0.000000 0.060311 3.413682 27.369977 6.051555 12.712663 1.294632 -7.624038 -0.909205 12.935976 0.000000 0.000001 0.000003 -13.274627 14.807433 -19.977931 -89.639218 -5.111801 58.324317 0.000763 92.444910 -0.000733 62.801827 -12.570884 -59.821133 -7.732152 -2.673271 -26.326524 6.474590 -14.392114 -1.865644 -5.817693 -4.950705 -14.845768 -0.000003 -0.000001 -0.000003 0.058279 -2.603169 2.855574 0.000004 -0.000242 0.003063 0.000064 0.024497 -0.300856 -0.000001 0.000001 0.000000 -53.815921 1.916319 -4.078615 25.666331 -8.526577 1.893967 10.354991 0.342712 -8.980418 -8.049740 -0.000002 0.000003 -0.000000 0.000000 0.000000 -52.632628 4.505010 4.741712 26.695994 3.126579 -7.586462 5.908065 0.608410 8.463372 -6.612651 -0.000003 -0.000001 -0.000001 -0.000000 0.000002 
0.273577 73.169403 172.942429 136.451320 -0.131993 4.723556 33.458607 -1.884510 -1.313103 5.049963 -0.009939 -0.324892 5.051997 -0.040048 -0.229231 9.885876 2.095844 -11.667177 -9.832885 2.071773 9.008955 -0.000000 0.000000 -0.000000 1.786973 -16.207740 6.433818 -103.051845 -7.091158 -31.206653 180.000046 -79.013739 179.999991 41.182298 4.871137 68.759371 0.083145 2.838241 -4.032124 -0.000001 0.000407 -0.003805 0.000029 -0.018739 0.182637 -0.000004 -0.000000 0.000000 -0.212322 3.450568 27.299322 6.074526 12.737811 1.274312 -7.725365 -1.076881 12.861401 0.000002 0.000002 -0.000002 -5.881668 11.801428 -17.655153 -94.894311 -4.275445 59.625776 0.000062 103.672088 -0.000076 64.249438 -13.007487 -62.824927 -8.005242 -2.705791 -26.245005 6.515586 -14.372344 -1.778614 -5.926178 -4.756239 -14.890393 0.000001 0.000003 0.000002 0.054033 -2.547220 1.771084 0.000000 -0.000255 0.003011 0.000117 0.033090 -0.405968 -0.000000 0.000002 0.000001 -61.384993 0.644465 -3.637599 36.573860 -6.718061 0.893354 9.848619 0.581886 -9.804635 -7.493865 -0.000001 0.000001 0.000001 0.000000 -0.000001 -61.214997 6.374299 7.098940 39.311219 0.394043 -7.795956 5.350403 0.765433 5.733943 -5.769853 0.000002 0.000001 -0.000002 -0.000001 0.000000 
0.272860 69.295891 181.888046 141.071151 -0.546017 4.969947 37.440003 -1.871986 -1.902372 6.654822 -0.046489 -0.657871 6.657121 -0.102316 -0.530781 18.055320 1.011627 -12.499253 -11.425252 1.156537 9.683874 0.000002 0.000000 -0.000000 0.624419 -13.496101 2.530764 -104.161389 -4.985889 -38.604694 180.000032 -69.240312 180.000032 44.740796 3.113613 68.657410 0.066312 2.545616 -0.977484 -0.000003 0.000382 -0.003834 0.000051 -0.024299 0.237104 -0.000001 0.000000 -0.000000 -0.521307 3.492503 27.219600 6.100582 12.766272 1.251239 -7.840383 -1.266667 12.776256 0.000000 0.000002 0.000003 -1.292365 10.347871 -15.492739 -98.151874 -4.858959 59.864436 -0.000037 113.568192 0.000023 64.026344 -11.538779 -66.397785 -8.314730 -2.742957 -26.152919 6.561919 -14.349860 -1.679989 -6.049230 -4.535748 -14.940199 -0.000002 -0.000002 0.000000 0.051842 -2.526161 1.079127 0.000002 -0.000218 0.002959 0.000194 0.042784 -0.525093 -0.000001 -0.000000 -0.000000 -69.293703 1.099917 -2.153416 48.471564 -4.666965 -0.423943 9.067241 0.916667 -9.559984 -7.314849 -0.000000 -0.000001 -0.000001 0.000000 -0.000000 -69.521661 6.832518 8.988688 51.346856 -3.579198 -6.949037 3.631982 0.905405 3.769529 -3.502099 -0.000003 0.000003 0.000000 -0.000000 0.000000 
0.388863 64.823334 190.550079 146.124534 -0.698422 4.878661 41.503969 -1.666355 -2.058122 8.286526 -0.082272 -0.866280 8.289095 -0.149515 -0.707391 25.646467 -0.119827 -12.051481 -16.036839 0.651734 9.581050 -0.000001 0.000000 -0.000000 -0.186823 -11.329352 -0.406503 -103.756106 -2.822342 -44.711467 180.000032 -60.830696 180.000019 46.741559 0.810599 69.561652 0.068954 2.096896 3.612397 0.000001 0.000397 -0.003852 0.000080 -0.030504 0.297717 0.000001 0.000001 -0.000000 -0.865161 3.539331 27.131325 6.129573 12.797947 1.225547 -7.968584 -1.477532 12.680691 0.000003 -0.000001 0.000000 -0.315538 10.163808 -14.089870 -98.710119 -6.247066 59.286773 0.000023 121.804170 -0.000031 62.688398 -8.894408 -70.361822 -8.659115 -2.784564 -26.050765 6.613548 -14.324759 -1.570297 -6.186335 -4.290228 -14.994659 0.000001 -0.000002 0.000001 0.047874 -2.470669 -0.060925 -0.000001 -0.000226 0.002907 0.000310 0.053556 -0.657655 0.000001 0.000001 0.000000 -76.893696 2.024426 -0.785876 60.638556 -4.173890 -1.136611 7.461372 1.348244 -8.052568 -6.841872 0.000001 0.000003 -0.000001 -0.000000 0.000000 -77.062545 6.412739 10.095210 62.889260 -5.118306 -5.338168 0.821821 1.025891 4.050611 -2.178979 0.000003 0.000003 0.000001 0.000000 0.000000 
0.522605 59.988205 198.780396 151.567171 -0.813298 5.105714 45.470991 -1.861403 -2.211931 9.948417 -0.102163 -0.931897 9.951460 -0.160953 -0.743016 28.016480 -0.504753 -11.661983 -17.925659 -0.043864 9.031006 0.000001 -0.000000 0.000000 0.088206 -10.276633 -1.450995 -103.935474 0.454629 -47.888201 180.000019 -54.164192 180.000032 47.310067 -1.990029 72.423781 0.107966 1.631660 8.398708 -0.000004 0.000375 -0.003888 0.000119 -0.037298 0.364219 -0.000001 0.000001 -0.000000 -1.242402 3.590941 27.035034 6.161386 12.832682 1.197333 -8.109469 -1.708458 12.574897 -0.000002 -0.000000 -0.000001 0.305447 10.414054 -13.479505 -99.687178 -6.185805 57.142787 0.000010 128.124923 -0.000041 60.072128 -5.923093 -74.450134 -9.036923 -2.830592 -25.939137 6.670143 -14.297042 -1.449991 -6.336930 -4.020718 -15.053220 0.000003 0.000001 -0.000001 0.043264 -2.178333 -4.169681 0.000001 -0.000240 0.002851 0.000459 0.065432 -0.803065 -0.000001 -0.000001 0.000000 -83.351626 3.091522 0.117452 72.254700 -4.792398 -1.307103 5.250924 1.780838 -6.333931 -5.988014 -0.000002 0.000001 0.000002 -0.000001 -0.000000 -83.703763 5.535662 11.077053 73.791636 -4.685228 -3.826250 -1.014802 1.253719 3.214677 -4.746065 0.000005 -0.000000 -0.000000 0.000000 0.000001 
0.675416 54.666779 207.079895 157.762398 -1.055213 5.488026 49.046352 -2.139204 -2.368129 11.517296 -0.122533 -0.952597 11.520955 -0.159952 -0.735706 27.792584 -0.618576 -11.872090 -18.204191 -1.007867 8.511807 0.000002 -0.000000 -0.000000 0.941764 -10.856162 -2.867336 -105.731137 0.902101 -49.613511 180.000032 -50.688128 180.000032 47.932591 -4.764716 77.843932 0.157173 1.307109 11.850906 -0.000000 0.000392 -0.003911 0.000163 -0.044727 0.436318 0.000002 0.000001 -0.000000 -1.651535 3.647128 26.931229 6.195894 12.870361 1.166700 -8.262562 -1.958456 12.459007 0.000001 0.000005 0.000000 1.180027 10.972959 -13.532229 -99.991435 -7.167916 52.752389 -0.000020 132.811676 0.000013 60.041884 -7.327533 -75.745568 -9.446613 -2.880881 -25.818571 6.731520 -14.266827 -1.319595 -6.500491 -3.728248 -15.115328 -0.000001 0.000001 -0.000001 0.064382 -1.815387 -8.881752 -0.000001 -0.000197 0.002797 0.000657 0.078253 -0.960754 0.000001 -0.000000 -0.000000 -88.251221 3.846275 1.063867 82.170659 -4.253204 -1.166342 2.708480 2.207445 -5.868470 -5.172737 -0.000002 0.000002 0.000003 0.000000 -0.000000 -89.042485 4.911501 11.768182 83.156856 -4.449433 -2.845333 -2.737638 1.420262 3.629273 -5.600900 -0.000000 0.000002 -0.000002 -0.000000 -0.000001 
